<?xml version="1.0" encoding="utf-8"?>
<!-- Generator: Adobe Illustrator 23.0.0, SVG Export Plug-In . SVG Version: 6.00 Build 0)  -->
<svg version="1.1" id="Layer_1" xmlns="http://www.w3.org/2000/svg" xmlns:xlink="http://www.w3.org/1999/xlink" x="0px" y="0px"
	 viewBox="0 0 640 512" style="enable-background:new 0 0 640 512;" xml:space="preserve">
<style type="text/css">
	.st0{fill:#FFFFFF;}
</style>
<path class="st0" d="M9.4,233.4c-6,6-9.4,14.1-9.4,22.6v128c0,8.5,3.4,16.6,9.4,22.6S23.5,416,32,416h32V224H32
	C23.5,224,15.4,227.4,9.4,233.4z M464,96H352V32c0-17.6-14.4-32-32-32s-32,14.4-32,32v64H176c-44.2,0-80,35.8-80,80v272
	c0,35.4,28.6,64,64,64h320c35.4,0,64-28.6,64-64V176C544,131.8,508.3,96,464,96z M256,416h-64v-32h64V416z M224,296
	c-22.1,0-40-17.9-40-40s17.9-40,40-40s40,17.9,40,40S246.1,296,224,296z M352,416h-64v-32h64V416z M448,416h-64v-32h64V416z
	 M416,296c-22.1,0-40-17.9-40-40s17.9-40,40-40s40,17.9,40,40S438.1,296,416,296z M630.6,233.4c-6-6-14.1-9.4-22.6-9.4h-32v192h32
	c8.5,0,16.6-3.4,22.6-9.4s9.4-14.1,9.4-22.6V256C640,247.5,636.6,239.4,630.6,233.4z"/>
</svg>
